# xmcd CD database file
#
# Track frame offsets:
#	150
#	29829
#	51855
#	74438
#	102208
#	122727
#	155883
#	171210
#	194297
#	216235
#	240635
#	271531
#
# Disc length: 4249 seconds
#
# Revision: 0
# Processed by: cddbd v1.5.2PL0 Copyright (c) Steve Scherf et al.
# Submitted via: CDex 1.70beta2
#
DISCID=b110970c
DTITLE=Kyle Eastwood - Metropolitan
DYEAR=2009
DGENRE=Jazz
TTITLE0=Metropolitan
TTITLE1=Bold Changes
TTITLE2=Hot Box
TTITLE3=Black Light
TTITLE4=Bel Air
TTITLE5=Samba de Paris
TTITLE6=Song For You
TTITLE7=Rue Perdue
TTITLE8=Le Balai
TTITLE9=Live For Life
TTITLE10=Samba de Paris(Original Version)
TTITLE11=Marrakesh(Live In London
EXTD=YEAR: 2009
EXTT0=
EXTT1=
EXTT2=
EXTT3=
EXTT4=
EXTT5=
EXTT6=
EXTT7=
EXTT8=
EXTT9=
EXTT10=
EXTT11=
PLAYORDER=
